<svg xmlns="http://www.w3.org/2000/svg" xmlns:xlink="http://www.w3.org/1999/xlink" width="506.16" height="512" viewBox="0 0 506.16 512">
  <defs>
    <radialGradient id="radial-gradient" cx="250.88" cy="88.22" r="82.82" gradientTransform="matrix(0.91, 0.02, -0.01, 0.22, 22.54, 122.89)" gradientUnits="userSpaceOnUse">
      <stop offset="0" stop-color="#525458"/>
      <stop offset="1" stop-color="#2b2d31"/>
    </radialGradient>
    <linearGradient id="linear-gradient" x1="256" y1="311.29" x2="256" y2="99.01" gradientUnits="userSpaceOnUse">
      <stop offset="0" stop-color="#2c2e32"/>
      <stop offset="0.08" stop-color="#55575b"/>
      <stop offset="0.33" stop-color="#2a2c30"/>
      <stop offset="0.52" stop-color="#54565a"/>
      <stop offset="1" stop-color="#26252b"/>
    </linearGradient>
    <radialGradient id="radial-gradient-2" cx="256" cy="219.6" r="161.99" gradientTransform="translate(21.85 -52.96) scale(0.91 1.32)" gradientUnits="userSpaceOnUse">
      <stop offset="0" stop-color="#3fb6ff"/>
      <stop offset="0.1" stop-color="#3eb1f8"/>
      <stop offset="0.25" stop-color="#3ba3e3"/>
      <stop offset="0.43" stop-color="#378cc1"/>
      <stop offset="0.63" stop-color="#316c92"/>
      <stop offset="0.85" stop-color="#2a4356"/>
      <stop offset="1" stop-color="#24252a"/>
    </radialGradient>
    <radialGradient id="radial-gradient-3" cx="298.82" cy="113.32" r="241.72" gradientTransform="translate(21.85 86.1) scale(0.91 0.68)" xlink:href="#radial-gradient"/>
    <radialGradient id="radial-gradient-4" cx="261.67" cy="406.3" r="113.16" gradientTransform="matrix(0, 0.87, -0.04, 0, 268.83, -53.85)" gradientUnits="userSpaceOnUse">
      <stop offset="0.19" stop-color="#3facff"/>
      <stop offset="0.27" stop-color="#3591d7"/>
      <stop offset="0.41" stop-color="#225e8c"/>
      <stop offset="0.54" stop-color="#143650"/>
      <stop offset="0.65" stop-color="#091924"/>
      <stop offset="0.73" stop-color="#02070a"/>
      <stop offset="0.78"/>
    </radialGradient>
    <radialGradient id="radial-gradient-5" cx="263.76" cy="734.62" r="113.16" gradientTransform="matrix(0, 0.87, -0.04, 0, 281.77, 70.54)" xlink:href="#radial-gradient-4"/>
  </defs>
  <title>metas</title>
  <g style="isolation: isolate">
    <g id="Layer_1" data-name="Layer 1">
      <g id="Group_938" data-name="Group 938">
        <g id="Group_931" data-name="Group 931">
          <path id="Path_8573" data-name="Path 8573" d="M373.46,45.07a325.68,325.68,0,0,0-36,42.68l-3.39-1.11A246.25,246.25,0,0,0,273.83,75c-6.15-.47-29.11-.47-36.6,0-22.64,1.5-40,4.89-59.72,11.75-.79.32-1.5.55-2.21.79a321.28,321.28,0,0,0-37.15-42.36A258.27,258.27,0,0,1,348.77,34c7.33,2.76,14.51,6,21.53,9.46Z" transform="translate(-2.92)" fill="#4b6dff"/>
          <path id="Path_8574" data-name="Path 8574" d="M495.57,344.27a246.34,246.34,0,0,1-44.18,77.47,274.77,274.77,0,0,1-34.55,33.84,254.72,254.72,0,0,1-99.63,49.14,260.88,260.88,0,0,1-122.42,0,254.25,254.25,0,0,1-99.63-49.14,275.45,275.45,0,0,1-34.55-33.84A243.46,243.46,0,0,1,16.43,184.46a258,258,0,0,1,20.12-43.39c3.71-6.31,8.28-13.41,10.49-16.33,7.57,32.58,16.88,61.22,20.35,71.55a16.6,16.6,0,0,1-.87,1.74c-18.38,37.23-28.31,73.12-30.68,111.3,0,.47-.08,1-.08,1.5-.63,11.44-.32,16.88,1.58,24.06,5.91,22.48,24.14,47.25,52.69,71.54,46.78,39.76,110.2,68.48,158.24,71.79,50.09,3.39,124-25.88,173.23-68.63a246.64,246.64,0,0,0,21.77-21.85c4.89-5.68,12.15-15.46,11.6-15.46-.16,0,0-.16.31-.32s.47-.39.32-.55.08-.31.31-.39.4-.24.32-.4,0-.31.31-.39a.36.36,0,0,0,.24-.48.2.2,0,0,1,.16-.31c.16,0,.31-.24.31-.4s.16-.39.32-.39a.33.33,0,0,0,.31-.32,8.54,8.54,0,0,1,1-1.81c1.18-1.81,5.92-10.25,6.55-11.67,4.49-10.18,7.33-19.25,8.67-28.32.64-4.34,1-12.31.71-14.2-.07-.32-.07-.87-.15-1.74-.16-1.58-.24-3.94-.4-6.31-.16-3.55-.47-8.52-.71-11-3.39-35.82-12.54-65.08-29.89-96.08a27.12,27.12,0,0,1-1.74-3.32,4.16,4.16,0,0,1-.32-.63h0C444,186,454,155.27,462,120.17l.15.16,1.19,1.57c2.05,2.76,7.49,11,9.94,14.91a242.31,242.31,0,0,1,22.32,207.46Z" transform="translate(-2.92)" fill="#4b6dff"/>
          <path id="Path_8575" data-name="Path 8575" d="M393.18,250c-.24,1.26-3.95,5.05-7.65,7.81-10.89,8-30.37,15.38-50.17,18.93-11.28,2.05-22.56,2.37-25.95.71-2.21-1.1-2.53-2-1.74-4.81,1.66-5.92,7-12.39,15.38-18.46,4.26-3.08,21.54-13.57,29.58-18,13.26-7.26,24-11.6,31.24-12.63,2.29-.31,5.05-.39,5.92,0,1.42.56,3,4.74,3.63,9.79A130.47,130.47,0,0,1,393.18,250Z" transform="translate(-2.92)"/>
          <path id="Path_8576" data-name="Path 8576" d="M207.33,276.12c-.47.95-2.84,2-5.52,2.37s-10.89.15-15.54-.4c-16.72-2.21-34.47-7.33-47.41-13.64-7.26-3.55-12.46-7.1-16.33-11l-2.21-2.29-.23-3c-.4-5.21-.32-13.41.31-16.33a21.42,21.42,0,0,1,2.45-7c.63-.78.63-.78,3.47-.78a34.08,34.08,0,0,1,11.12,2.05c9.7,3,24.14,10.25,41.73,20.82,14.51,8.68,20,12.94,24.14,18.78C206.15,269.41,208,274.54,207.33,276.12Z" transform="translate(-2.92)"/>
          <path id="Path_8577" data-name="Path 8577" d="M319,385.93c0,.23-.95,4-2.13,8.51s-2.13,8.13-2.13,8.29a13.31,13.31,0,0,1-2.52.08h-2.53l-3.47,8.2c-1.89,4.5-3.63,8.68-3.87,9.31l-.47,1.1-1.65-2.68-1.66-2.68V394.21l-.63.16c-1.34.31-10.89,1.57-15.07,2a215.08,215.08,0,0,1-51.83-1.11c-2.76-.39-5.12-.71-5.2-.63s0,5.13.16,11.36l.23,11.2-1.34,2c-.71,1.11-1.42,2.05-1.42,2.13-.23.24-1-1-2.84-4.65a53.72,53.72,0,0,1-4.42-12l-.55-2.29-2.44.16-2.45.24-.63-2.92c-.31-1.58-.71-4-.87-5.37l-.23-2.52-2-1.82c-1.19-1-2.37-2.05-2.61-2.2a1.75,1.75,0,0,1-.55-1.34v-.95l9.86.08,9.86.08.32,1,.31,1,3.39.15c1.9.08,7.89.24,13.26.4l9.86.24,2.52-3.95,2.6-3.94h3.32l-.08-8.21-.08-8.2-4.34-1.89c-14-6.16-22.17-13.18-25.24-21.7-.63-1.73-.63-2.36-.79-10.25s-.08-8.52.47-10.26a11.46,11.46,0,0,1,8.13-8c1.34-.4,4.89-.4,23.5-.4l21.93.08,2.45,1.19a13.73,13.73,0,0,1,5.92,4.65c1.89,2.52,2.44,4.5,2.44,9.31,0,6.86-.47,12.78-1.18,15.14a33,33,0,0,1-4.58,9.08A42.07,42.07,0,0,1,270,363.68l-1.89.71.08,8.28.08,8.29,1.73.15,1.74.16,2.36,3.55,2.29,3.55H287c5.84,0,11,.08,11.44.16.79.16.95.08,1.74-1.26l.94-1.42h9.07C317,385.53,319,385.69,319,385.93Z" transform="translate(-2.92)"/>
          <path id="Path_8578" data-name="Path 8578" d="M277.38,408.56c-1.5.87-2.53,1.27-2.76,1.11s-1.34-1-2.53-1.89L270,406l-2.2,2.37c-4.82,5.2-5,5.44-6.39,5.52-2.21.24-2.69-.16-5.37-4.18-1.42-2.05-2.52-3.79-2.52-3.79s-1-.16-2.21-.24l-2.21-.23-1,2.13-1,2.13-1.82-.55a39.94,39.94,0,0,1-4.18-1.66l-2.36-1.18v-4.5l21,.08,21,.08.08,2.13C280.77,406.67,280.85,406.59,277.38,408.56Z" transform="translate(-2.92)"/>
        </g>
        <path id="Path_8579" data-name="Path 8579" d="M474.59,312.33c-.08-.32-.08-.87-.16-1.74-18.93-2-73-3.31-123.14,38.1,0,0-16.17-74.15-91.9-74.15s-103.81,74.15-103.81,74.15C113.14,303,56.35,306.33,35.84,309.33c0,.47-.08,1-.08,1.5-.63,11.44-.32,16.88,1.58,24.06,5.91,22.48,24.14,47.25,52.69,71.54,46.78,39.76,110.2,68.48,158.24,71.79,50.09,3.39,124-25.88,173.23-68.63a246.64,246.64,0,0,0,21.77-21.85c4.89-5.68,12.15-15.46,11.6-15.46-.16,0,0-.16.31-.32s.47-.39.32-.55.08-.31.31-.39.4-.24.32-.4,0-.31.31-.39a.36.36,0,0,0,.24-.48.2.2,0,0,1,.16-.31c.16,0,.31-.24.31-.4s.16-.39.32-.39a.33.33,0,0,0,.31-.32,8.54,8.54,0,0,1,1-1.81c1.18-1.81,5.92-10.25,6.55-11.67,4.49-10.18,7.33-19.25,8.67-28.32C474.51,322.19,474.9,314.22,474.59,312.33ZM277.38,408.56c-1.5.87-2.53,1.27-2.76,1.11s-1.34-1-2.53-1.89L270,406l-2.2,2.37c-4.82,5.2-5,5.44-6.39,5.52-2.21.24-2.69-.16-5.37-4.18-1.42-2.05-2.52-3.79-2.52-3.79s-1-.16-2.21-.24l-2.21-.23-1,2.13-1,2.13-1.82-.55a39.94,39.94,0,0,1-4.18-1.66l-2.36-1.18v-4.5l21,.08,21,.08.08,2.13C280.77,406.67,280.85,406.59,277.38,408.56Zm39.44-14.19c-1.18,4.49-2.13,8.12-2.13,8.28a13.31,13.31,0,0,1-2.52.08h-2.53L306.25,411c-1.89,4.5-3.63,8.68-3.87,9.31l-.47,1.1-1.65-2.68-1.66-2.68V394.21l-.63.16c-1.34.31-10.89,1.57-15.07,2a215.08,215.08,0,0,1-51.83-1.11c-2.76-.39-5.12-.71-5.2-.63s0,5.13.16,11.36l.23,11.2-1.34,2c-.71,1.11-1.42,2.05-1.42,2.13-.23.24-1-1-2.84-4.65a53.72,53.72,0,0,1-4.42-12l-.55-2.29-2.44.16-2.45.24-.63-2.92c-.31-1.58-.71-4-.87-5.37l-.23-2.52-2-1.82c-1.19-1-2.37-2.05-2.61-2.2a1.75,1.75,0,0,1-.55-1.34v-.95l9.86.08,9.86.08.32,1,.31,1,3.39.15c1.9.08,7.89.24,13.26.4l9.86.24,2.52-3.95,2.6-3.94h3.32l-.08-8.21-.08-8.2-4.34-1.89c-14-6.16-22.17-13.18-25.24-21.7-.63-1.73-.63-2.36-.79-10.25s-.08-8.52.47-10.26a11.46,11.46,0,0,1,8.13-8c1.34-.4,4.89-.4,23.5-.4l21.93.08,2.45,1.19a13.73,13.73,0,0,1,5.92,4.65c1.89,2.52,2.44,4.5,2.44,9.31,0,6.86-.47,12.78-1.18,15.14a33,33,0,0,1-4.58,9.08A42.07,42.07,0,0,1,270,363.68l-1.89.71.08,8.28.08,8.29,1.73.15,1.74.16,2.36,3.55,2.29,3.55H287c5.84,0,11,.08,11.44.16.79.16.95.08,1.74-1.26l.94-1.42h9.07c7,0,9.08.08,9.08.31C319,386.08,318,390,316.82,394.37Z" transform="translate(-2.92)" fill="#fff"/>
        <path id="Path_8580" data-name="Path 8580" d="M35.68,309.33a72.81,72.81,0,0,0-7.89,1.5" transform="translate(-2.92)" fill="none"/>
        <path id="Path_8581" data-name="Path 8581" d="M481.45,311.62s-2.52-.55-7-1" transform="translate(-2.92)" fill="none"/>
        <path id="Path_8582" data-name="Path 8582" d="M474,304.28c-.16-3.55-.48-8.52-.71-11-3.4-35.82-12.55-65.08-29.9-96.08a28.59,28.59,0,0,1-1.74-3.32,5.11,5.11,0,0,1-.31-.63h0c2.44-7.33,12.46-38,20.43-73.12C472.54,72.52,479.4,16.83,458.42.11c0,0-36.29-2.68-84.88,45a324.91,324.91,0,0,0-36,42.68l-3.4-1.11A246.08,246.08,0,0,0,273.91,75c-6.15-.47-29.11-.47-36.6,0-22.64,1.5-40,4.89-59.72,11.75-.79.32-1.5.55-2.21.79a321.28,321.28,0,0,0-37.15-42.36C87.67-2.73,50,0,50,0,27.79,17.3,35.37,75.52,46.88,124.74c7.58,32.58,16.88,61.22,20.35,71.55a18.67,18.67,0,0,1-.86,1.74C48,235.26,38.05,271.15,35.68,309.33c20.59-3,77.31-6.39,119.82,39.36,0,0,28.09-74.15,103.81-74.15s91.9,74.15,91.9,74.15a168.16,168.16,0,0,1,123.14-38.1C474.27,309,474.11,306.65,474,304.28ZM82.14,166.55S52.64,92.8,60.21,50.67h0c1.27-7.1,3.63-13.33,7.34-18.06,0,0,33.45,3.31,87.4,63.26,0,0-10.25,5-24,15.54a.28.28,0,0,1-.16.08,189.9,189.9,0,0,0-48.67,55.06ZM207.33,276.12c-.47.95-2.84,2-5.52,2.37s-10.89.15-15.54-.4c-16.72-2.21-34.47-7.33-47.41-13.64-7.26-3.55-12.46-7.1-16.33-11l-2.21-2.29-.23-3c-.4-5.21-.32-13.41.31-16.33a21.42,21.42,0,0,1,2.45-7c.63-.78.63-.78,3.47-.78a34.08,34.08,0,0,1,11.12,2.05c9.7,3,24.14,10.25,41.73,20.82,14.51,8.68,20,12.94,24.14,18.78C206.15,269.41,208,274.54,207.33,276.12ZM393.18,250c-.24,1.26-3.95,5.05-7.65,7.81-10.89,8-30.37,15.38-50.17,18.93-11.28,2.05-22.56,2.37-25.95.71-2.21-1.1-2.53-2-1.74-4.81,1.66-5.92,7-12.39,15.38-18.46,4.26-3.08,21.54-13.57,29.58-18,13.26-7.26,24-11.6,31.24-12.63,2.29-.31,5.05-.39,5.92,0,1.42.56,3,4.74,3.63,9.79A130.47,130.47,0,0,1,393.18,250Zm-13.1-138.6-.15-.08c-13.26-10.57-23.19-15.54-23.19-15.54,52.14-59.95,84.4-63.26,84.4-63.26,3.55,4.81,5.84,11,7.1,18.06h0c7.34,42.13-21.14,116-21.14,116a187.94,187.94,0,0,0-47-55.14Z" transform="translate(-2.92)" fill="#ffa409"/>
        <path id="Path_8583" data-name="Path 8583" d="M337.49,87.75c-.16.16-.24.39-.4.55" transform="translate(-2.92)" fill="none"/>
        <path id="Path_8584" data-name="Path 8584" d="M441.22,193.21c-.4,1.11-.55,1.66-.55,1.66" transform="translate(-2.92)" fill="none"/>
        <g id="Group_934" data-name="Group 934">
          <g id="Group_933" data-name="Group 933">
            <g id="Group_932" data-name="Group 932">
              <path id="Path_8585" data-name="Path 8585" d="M448.32,50.59c-6.15-.79-35.26-.94-68.24,60.82l-.15-.08c-13.26-10.57-23.19-15.54-23.19-15.54,52.14-59.95,84.4-63.26,84.4-63.26C444.77,37.34,447.06,43.49,448.32,50.59Z" transform="translate(-2.92)" fill="#ff9300"/>
            </g>
            <path id="Path_8586" data-name="Path 8586" d="M427.18,166.55a187.19,187.19,0,0,0-47.1-55.14c33-61.76,62-61.61,68.24-60.82h0C455.65,92.8,427.18,166.55,427.18,166.55Z" transform="translate(-2.92)" fill="#ff8300"/>
            <path id="Path_8587" data-name="Path 8587" d="M449.5,50.83l-1.18-.24Z" transform="translate(-2.92)" fill="#ff8300"/>
          </g>
        </g>
        <path id="Path_8588" data-name="Path 8588" d="M177.75,90.82c-.79-1.1-1.66-2.2-2.45-3.31" transform="translate(-2.92)" fill="none"/>
        <path id="Path_8589" data-name="Path 8589" d="M67.23,196.29c.87,2.68,1.42,4.1,1.42,4.1" transform="translate(-2.92)" fill="none"/>
        <g id="Group_937" data-name="Group 937">
          <g id="Group_936" data-name="Group 936">
            <g id="Group_935" data-name="Group 935">
              <path id="Path_8590" data-name="Path 8590" d="M155,95.79s-10.25,5-24,15.54a.28.28,0,0,1-.16.08C96.66,49.57,66.6,49.8,60.14,50.59c1.26-7.1,3.62-13.33,7.33-18.06C67.55,32.53,101,35.84,155,95.79Z" transform="translate(-2.92)" fill="#ff9300"/>
            </g>
            <path id="Path_8591" data-name="Path 8591" d="M130.89,111.41c-15,11.52-34.07,29.58-48.75,55.14,0,0-29.5-73.75-21.93-116h0C66.6,49.8,96.74,49.65,130.89,111.41Z" transform="translate(-2.92)" fill="#ff8300"/>
            <path id="Path_8592" data-name="Path 8592" d="M60.21,50.59,59,50.83Z" transform="translate(-2.92)" fill="#ff8300"/>
          </g>
        </g>
        <path id="Path_8593" data-name="Path 8593" d="M347.35,207.49s-25.24,1.58-22.09-18.14,22.88-22.09,28.4-21.3,27.61,8.68,23.66,25.24-9.46,13.41-12.62,14.2S347.35,207.49,347.35,207.49Z" transform="translate(-2.92)" fill="#fff"/>
        <path id="Path_8594" data-name="Path 8594" d="M161.18,207.49s-25.24,1.58-22.08-18.14,22.87-22.09,28.39-21.3,27.61,8.68,23.67,25.24-9.47,13.41-12.62,14.2S161.18,207.49,161.18,207.49Z" transform="translate(-2.92)" fill="#fff"/>
      </g>
      <g>
        <g>
          <path d="M435,165.7,82.19,162.9s6.11-2.92,14.83-6a134.54,134.54,0,0,1,20.8-5.6c1.61-.29,3.22-.52,4.81-.71,19.52-2.29,70.77,2.52,133.36,2.52s123.47-4.19,139.84-1.6c1.29.21,2.54.42,3.74.65A114.78,114.78,0,0,1,420,157.83C430.33,161.81,435,165.7,435,165.7Z" transform="translate(-2.92)" fill="url(#radial-gradient)"/>
          <path d="M399.57,152.19c-12.59,0-30.22.72-50.64,1.59-27.56,1.17-61.83,2.62-95.46,2.62-35.83,0-67.88-1.8-93.64-3.26-17.18-1-31.22-1.76-42-1.81a134.54,134.54,0,0,0-20.8,5.6c2.48-.49,5-.9,7.47-1.18,10.69-1.26,30.23-.16,55,1.25,25.84,1.45,58,3.26,94,3.26,33.77,0,68.14-1.45,95.75-2.63,30.92-1.32,55.33-2.36,64.79-.86,2.08.33,4.09.69,6,1.06A114.78,114.78,0,0,0,399.57,152.19Z" transform="translate(-2.92)" fill="#3fb6ff"/>
        </g>
        <g>
          <path d="M452.49,198.52c-8.15-37.28-23.75-42.55-72.86-39.88-22.48,1.23-50,2.38-73.41,3.28q-50.14,1.91-100.31,0c-23.39-.9-50.94-2-73.42-3.28-49.1-2.67-64.71,2.6-72.86,39.88S55.69,301.36,86.11,306.64s95.49,3,136.8,1.73q33.15-1,66.3,0c41.31,1.3,114.87,3.61,136.8-1.73C455.71,299.42,460.63,235.81,452.49,198.52Z" transform="translate(-2.92)" fill="url(#linear-gradient)"/>
          <path d="M368.15,301c-27,0-56.74-.94-78.44-1.62-11.16-.35-22.48-.53-33.65-.53s-22.49.18-33.65.53l-3.31.1c-20.94.67-47,1.49-71.49,1.49-27.17,0-47-1-58.8-3.1-6.38-1.11-14.58-12.2-18.51-34.47-3.45-19.5-3-44.4,1.16-63.42,6.3-28.83,14.71-32.93,42.43-32.93,4.94,0,10.74.19,17.74.57,19.08,1,43.87,2.15,73.67,3.29,16.83.64,33.91,1,50.76,1s33.93-.33,50.76-1c29.8-1.14,54.59-2.25,73.68-3.29,7-.38,12.8-.57,17.74-.57,27.71,0,36.12,4.1,42.42,32.93,4.09,18.71,4.44,43.31.9,62.65-4.34,23.76-13.08,33.95-19.24,35.45C416.84,299.41,403,301,368.16,301Z" transform="translate(-2.92)" fill="url(#radial-gradient-2)"/>
          <path d="M368.16,298.43c-27,0-56.63-.94-78.29-1.62-11.21-.35-22.58-.53-33.81-.53s-22.6.18-33.79.53l-3.32.1c-20.9.66-46.91,1.49-71.34,1.49-26.91,0-46.43-1-58-3-4.06-.7-12-10.09-15.89-32.3-3.4-19.27-3-43.87,1.15-62.67,6.07-27.74,13.27-30.76,39.05-30.76,4.85,0,10.57.18,17.49.56,19.08,1,43.89,2.15,73.74,3.29,16.89.64,34,1,50.94,1s34.05-.33,50.94-1c29.85-1.14,54.66-2.25,73.75-3.29,6.91-.38,12.63-.56,17.49-.56,25.77,0,33,3,39,30.77,4,18.48,4.38,42.77.89,61.88-4.11,22.45-12.36,32.24-16.91,33.35C417,296.67,404.36,298.43,368.16,298.43Z" transform="translate(-2.92)" fill="url(#radial-gradient-3)"/>
          <ellipse cx="252.82" cy="172.31" rx="8.17" ry="98.31" transform="translate(75.52 423.71) rotate(-89.53)" fill="url(#radial-gradient-4)" style="mix-blend-mode: color-dodge"/>
          <ellipse cx="252.78" cy="298.43" rx="8.17" ry="98.31" transform="translate(-50.63 548.74) rotate(-89.53)" fill="url(#radial-gradient-5)" style="mix-blend-mode: color-dodge"/>
        </g>
      </g>
    </g>
  </g>
</svg>
